<?xml version="1.0" encoding="UTF-8" standalone="no"?><!DOCTYPE svg PUBLIC "-//W3C//DTD SVG 1.1//EN" "http://www.w3.org/Graphics/SVG/1.1/DTD/svg11.dtd"><svg width="100%" height="100%" viewBox="0 0 8000 4213" version="1.1" xmlns="http://www.w3.org/2000/svg" xmlns:xlink="http://www.w3.org/1999/xlink" xml:space="preserve" xmlns:serif="http://www.serif.com/" style="fill-rule:evenodd;clip-rule:evenodd;stroke-linejoin:round;stroke-miterlimit:2;"><rect id="Page-12" serif:id="Page 12" x="0" y="0" width="8000" height="4212.5" style="fill:none;"/><g id="Layer-1" serif:id="Layer 1"><path d="M1514.884,1923.815c230.088,-251.408 210.921,-532.654 210.921,-771.292c0,-213.067 -134.237,-381.392 -164.058,-404.838c-44.737,-36.217 -83.1,-42.612 -110.796,-23.442c-23.442,25.592 -80.975,40.487 -61.783,149.158c21.296,127.837 8.525,268.475 0,328.112c-17.042,115.067 -68.179,196.042 -140.633,294.042c-10.65,14.921 -2.125,27.692 10.671,31.967c83.079,27.692 95.875,4.25 125.692,-8.525c38.362,-14.921 59.658,-8.521 74.579,21.296c12.771,29.842 -17.046,80.979 -31.967,102.271c-36.217,51.138 -100.125,119.321 -157.658,157.683c-53.283,34.092 -132.113,31.942 -219.463,2.125c-87.354,-29.817 -108.671,-6.4 -138.487,6.396c-38.363,14.921 -59.658,8.525 -74.579,-21.317c-12.796,-29.817 17.046,-80.954 31.967,-102.271c21.292,-31.946 55.383,-70.308 91.6,-102.275c44.763,-55.383 91.625,-138.488 108.671,-345.154c4.271,-61.783 -14.9,-198.146 -36.217,-357.954c-17.046,-127.838 -36.217,-289.771 -19.171,-398.438c14.896,-91.625 40.487,-159.808 102.271,-236.512c91.625,-115.042 187.5,-213.067 436.783,-213.067c181.1,0 298.292,66.058 355.825,142.762c55.388,72.429 70.308,117.192 34.092,149.158c-29.842,27.692 -63.929,61.783 -125.717,-12.796c-36.213,-44.738 -95.871,-85.229 -164.054,-102.275c-70.304,-17.042 -153.408,-12.792 -185.375,2.125c-72.429,38.367 -89.475,102.275 -108.667,200.296c-8.525,40.467 -10.65,85.225 -8.525,134.237l0,2.125c6.4,89.475 68.183,61.783 104.396,34.092c40.492,-31.967 89.5,-66.058 112.946,-85.229c53.258,-40.487 117.192,-42.612 181.1,-14.917c121.442,51.133 323.862,283.371 323.862,558.246c0,526.254 -206.671,816.025 -479.396,977.958c-61.783,36.217 -136.362,-29.817 -78.829,-93.75" style="fill-rule:nonzero;"/><path d="M2484.343,140.453l112.921,72.433c36.237,23.442 46.883,72.454 14.921,98.021l-93.75,80.975c-63.933,51.137 -123.567,42.592 -191.75,0l-112.942,-72.454c-36.217,-23.442 -46.863,-72.454 -14.921,-98l93.771,-80.975c63.908,-51.138 123.567,-42.612 191.75,0m6.396,1647l-21.317,-19.171c-21.296,-14.921 -42.613,-19.171 -57.513,-19.171c-12.792,0 -36.237,6.4 -51.133,10.65c-21.321,6.396 -61.808,6.396 -93.771,-29.842c-21.296,-25.546 -27.696,-78.829 6.396,-108.646c31.967,-27.717 40.487,-76.704 40.487,-106.546l0,-607.233c0,-98.025 6.4,-119.321 -34.092,-149.158l-14.917,-10.65c-12.775,-10.646 -38.342,-21.296 -55.387,-10.646l-19.171,10.646c-19.192,10.65 -49.012,4.275 -63.933,-14.896c-14.917,-21.321 -14.917,-53.283 10.65,-78.854c40.488,-42.612 93.75,-93.746 147.008,-129.962c66.058,-44.738 127.863,-44.738 191.775,0c72.454,49.008 106.542,83.1 140.633,123.587l70.308,74.558c19.167,17.046 25.567,27.717 25.567,49.012c0,17.042 -10.65,29.837 -23.442,38.337c-19.171,12.796 -36.217,14.921 -36.217,61.808l0,532.654c0,98.021 -6.4,117.192 36.217,149.158l72.429,55.388c34.092,25.567 40.488,66.054 12.796,98.021c-25.567,27.692 -51.138,57.513 -93.75,85.225c-66.054,42.617 -129.963,49.012 -189.625,-4.271" style="fill-rule:nonzero;"/><path d="M3306.769,1508.33c44.738,29.842 85.225,31.967 108.646,-36.217c42.637,-153.408 72.454,-402.692 70.329,-470.871c-2.146,-147.012 -70.329,-247.158 -121.463,-285.5c-34.092,-25.588 -61.783,-10.667 -74.558,0l-2.125,2.125l-53.283,38.342c-21.296,14.921 -27.692,51.138 -36.217,149.158c-8.521,100.146 -6.396,308.942 -2.125,392.042c4.25,98 8.525,123.571 38.342,149.138l72.454,61.783Zm-144.883,283.396c-76.704,-57.533 -210.942,-172.579 -255.683,-225.862c-31.963,-38.342 -40.488,-115.046 -44.738,-157.658c-8.546,-108.671 -6.396,-264.204 0,-389.917c4.25,-98 10.65,-125.717 46.863,-161.933c78.829,-76.704 174.729,-166.2 264.204,-240.758c25.567,-25.567 21.296,-40.487 -17.046,-72.454c-21.296,-17.046 -38.342,-29.817 -49.013,-38.342c-61.783,-44.737 -136.362,-151.279 -138.487,-238.633c-2.125,-80.975 31.967,-168.329 70.308,-198.146c40.487,-29.842 66.054,-10.671 70.304,17.046c12.796,83.079 17.046,95.875 125.717,193.875c66.058,59.658 223.738,157.679 304.692,204.542c262.079,151.283 268.454,364.35 270.6,462.35c12.771,400.588 -202.421,624.3 -362.225,764.917l-93.75,80.975c-63.908,51.138 -127.838,46.862 -191.746,0" style="fill-rule:nonzero;"/><path d="M4346.535,1508.33c44.738,29.842 85.225,31.967 108.646,-36.217c42.638,-153.408 72.454,-402.692 70.329,-470.871c-2.146,-147.012 -70.329,-247.158 -121.463,-285.5c-34.092,-25.588 -61.783,-10.667 -74.558,0l-2.125,2.125l-53.283,38.342c-21.296,14.921 -27.692,51.138 -36.217,149.158c-8.521,100.146 -6.396,308.942 -2.125,392.042c4.25,98 8.525,123.571 38.342,149.138l72.454,61.783Zm-144.883,283.396c-76.704,-57.533 -210.942,-172.579 -255.683,-225.862c-31.963,-38.342 -40.488,-115.046 -44.738,-157.658c-8.546,-108.671 -6.396,-264.204 0,-389.917c4.25,-98 10.65,-125.717 46.863,-161.933c78.829,-76.704 174.729,-166.2 264.204,-240.758c25.567,-25.567 21.296,-40.487 -17.046,-72.454c-21.296,-17.046 -38.342,-29.817 -49.012,-38.342c-61.783,-44.737 -136.362,-151.279 -138.487,-238.633c-2.125,-80.975 31.967,-168.329 70.308,-198.146c40.487,-29.842 66.054,-10.671 70.304,17.046c12.796,83.079 17.046,95.875 125.717,193.875c66.058,59.658 223.738,157.679 304.692,204.542c262.075,151.283 268.454,364.35 270.6,462.35c12.771,400.588 -202.421,624.3 -362.225,764.917l-93.75,80.975c-63.908,51.138 -127.838,46.862 -191.746,0" style="fill-rule:nonzero;"/><path d="M5324.517,1144.002l196.021,-168.329c61.783,-53.258 61.783,-132.113 0,-191.75c-14.921,-14.917 -46.887,-46.883 -59.658,-57.533c-12.771,-10.646 -42.613,-12.792 -61.783,0c-14.921,10.65 -27.717,21.296 -38.363,29.821c-74.579,59.658 -72.433,72.454 -80.954,313.212c-2.125,70.308 0,108.671 44.738,74.579m-411.212,93.75c-2.15,-198.146 53.258,-306.817 85.225,-349.429c140.613,-181.125 317.463,-315.337 462.35,-404.838c66.058,-40.467 127.842,-49.013 191.771,0c91.604,70.304 151.262,119.317 204.546,189.621c42.587,55.408 63.908,127.863 0,191.771c-61.808,61.788 -161.954,170.454 -245.033,240.763c-61.783,51.133 -187.5,151.283 -285.521,230.113c-27.692,23.442 -34.092,36.212 -31.942,59.658c29.817,119.317 91.6,213.067 198.146,219.463c74.579,4.275 108.667,-8.521 174.704,-42.613c59.658,-29.842 78.829,-27.692 95.871,0c14.921,23.442 8.546,55.387 -21.292,80.975c-89.479,78.829 -191.75,129.967 -370.75,129.967c-172.579,0 -455.95,-225.862 -458.075,-545.45" style="fill-rule:nonzero;"/><path d="M6293.976,1787.453l-17.046,-14.896c-21.317,-17.046 -44.738,-21.321 -59.658,-21.321c-12.796,0 -36.217,6.4 -51.137,10.65c-21.317,6.396 -61.804,6.396 -93.746,-29.821c-21.321,-25.567 -27.696,-78.829 6.396,-108.667c31.942,-27.696 40.467,-76.704 40.467,-106.525l0,-630.675c0,-98.025 4.271,-119.317 -36.217,-149.158l-14.921,-10.65c-12.771,-10.646 -38.342,-21.317 -55.387,-10.646c-19.167,10.646 -49.008,4.25 -63.929,-14.921c-14.921,-21.317 -10.646,-53.263 12.796,-78.85c51.133,-57.513 85.225,-89.479 127.837,-119.321c68.183,-46.862 127.842,-48.988 191.75,0c44.738,34.092 102.271,85.229 138.512,123.592c29.817,29.817 59.633,36.217 83.079,12.775c51.133,-51.137 112.917,-104.4 155.554,-138.492c63.908,-51.133 129.967,-46.863 191.75,0c36.212,27.717 104.396,85.229 138.487,123.592l72.454,74.579c19.171,17.046 25.567,27.692 25.567,48.988c0,17.046 -10.671,29.842 -23.442,38.362c-19.171,12.775 -38.367,10.65 -38.367,57.513l0,558.246c0,98.021 -6.375,117.192 36.242,149.158l72.429,55.388c34.092,25.567 42.613,66.054 14.921,98.021c-23.442,25.546 -49.012,57.512 -93.75,83.079c-72.429,42.612 -123.567,44.738 -191.746,2.146c-40.492,-25.587 -102.275,-85.225 -138.512,-127.862c-36.217,-44.737 -36.217,-106.521 -36.217,-149.133l0,-628.554c0,-98 6.4,-115.042 -36.213,-149.133l-14.921,-10.671c-12.775,-10.65 -40.492,-23.421 -55.408,-10.65l-66.033,55.412c-51.138,42.613 -59.663,72.429 -59.663,108.646l0,526.279c0,98.021 -6.396,117.192 36.217,149.158l72.433,55.387c34.088,25.567 42.633,66.054 14.921,98.021c-23.421,25.567 -55.387,57.513 -93.75,80.954c-70.308,42.612 -132.092,53.283 -191.75,0" style="fill-rule:nonzero;"/><path d="M321.642,3680.005l-17.046,-14.921c-21.317,-17.046 -44.738,-21.296 -59.658,-21.296c-12.796,0 -36.217,6.4 -51.138,10.65c-21.292,6.396 -61.783,6.396 -93.746,-29.821c-21.321,-25.567 -27.696,-78.85 6.396,-108.667c31.967,-27.696 40.467,-76.704 40.467,-106.546l0,-779.812c0,-44.737 -19.171,-68.183 -51.138,-80.954c-4.25,-2.15 -10.646,-4.275 -17.046,-6.4c-25.546,-10.646 -48.987,-27.692 -48.987,-49.008c0,-63.908 34.092,-78.829 66.033,-78.829l51.138,0c55.408,0 112.942,-55.408 168.329,-176.85c38.363,-83.104 51.133,-140.638 80.975,-206.671c21.296,-44.737 25.567,-49.013 53.263,-49.013c31.962,0 34.087,4.275 34.087,349.429l0,21.296c0,51.138 25.571,61.808 55.388,61.808l78.85,0c31.967,0 66.058,14.921 66.058,78.829c0,42.612 -44.763,63.908 -66.058,63.908l-78.85,0c-29.817,0 -55.388,10.671 -55.388,61.804l0,677.542c0,98.021 -6.396,117.192 36.217,149.158l72.454,55.388c34.092,25.567 42.612,66.054 14.9,98.021c-23.421,27.692 -53.263,57.533 -93.729,83.079c-70.329,44.763 -132.113,51.138 -191.771,-2.125" style="fill-rule:nonzero;"/><path d="M1212.25,2516.672c38.362,-34.092 68.183,-66.058 91.625,-85.225c53.258,-40.492 117.192,-42.617 181.1,-14.921c121.467,51.133 323.862,262.075 323.862,536.925c0,468.75 -198.146,703.133 -500.713,941.767c-59.638,46.867 -164.058,-53.283 -100.125,-117.192c259.929,-253.554 270.579,-383.521 253.533,-711.654c-10.65,-213.067 -134.217,-360.075 -164.058,-383.521c-44.737,-36.212 -63.908,-44.737 -89.475,-23.442c-27.692,23.442 -59.658,38.362 -59.658,121.467l0,515.608c0,98.021 -6.4,117.192 36.217,149.158l72.429,55.387c34.092,25.567 40.487,66.054 14.921,98.021c-23.421,29.817 -49.013,51.138 -98,83.079c-68.179,44.763 -127.837,51.137 -187.496,-2.125l-27.696,-23.421c-17.046,-10.671 -36.238,-14.921 -49.008,-14.921c-12.796,0 -36.217,6.375 -51.137,10.65c-21.317,6.396 -61.808,6.396 -93.75,-29.821c-21.317,-25.588 -27.692,-78.85 6.4,-108.667c31.942,-27.696 40.463,-76.704 40.463,-106.546l0,-1186.775c0,-129.967 -66.054,-98 -59.658,-172.579c2.15,-17.046 21.321,-46.887 46.888,-44.737c46.862,2.125 83.079,36.212 138.487,-10.671l49.013,-44.742c59.658,-53.258 110.792,-49.008 183.225,-8.521c44.758,25.567 78.85,61.783 102.271,89.475c27.717,31.967 19.171,72.454 -14.921,98.025l-72.429,55.383c-42.617,31.967 -36.217,51.138 -36.217,149.158l0,151.283c0,70.308 31.967,61.783 63.908,34.092" style="fill-rule:nonzero;"/><path d="M2356.458,3400.905c40.488,34.092 87.35,31.942 108.671,-36.238c44.738,-153.408 72.429,-402.692 70.304,-470.871c-2.125,-147.012 -85.225,-249.283 -138.487,-274.854c-19.192,-8.521 -46.883,-19.167 -59.679,-8.521l-53.263,38.342c-42.612,31.967 -27.692,51.133 -36.217,149.158c-8.521,100.125 -6.396,308.942 -2.125,392.042c4.25,98 -2.125,115.046 38.342,149.133l72.454,61.808Zm-144.887,283.375c-76.7,-57.537 -210.942,-172.604 -255.679,-225.863c-31.963,-38.342 -40.488,-115.046 -44.758,-157.658c-8.5,-108.671 -6.375,-264.204 0,-389.921c4.271,-98.021 12.796,-123.567 46.883,-161.929c132.113,-147.008 304.692,-291.896 426.133,-372.871c66.058,-44.742 134.238,-40.488 204.546,0c264.204,153.408 268.475,364.35 270.6,462.371c12.771,402.692 -236.508,656.221 -362.225,764.892l-93.75,80.979c-61.783,53.258 -127.838,46.862 -191.75,0" style="fill-rule:nonzero;"/><path d="M3253.463,3680.005c-40.467,-29.817 -108.646,-87.35 -138.488,-123.567c-31.967,-40.488 -34.092,-51.138 -34.092,-149.158l0,-626.404c0,-98.025 4.275,-119.317 -36.217,-149.158l-14.917,-10.65c-12.775,-10.646 -38.342,-19.171 -55.387,-10.646c-19.171,10.646 -49.013,4.25 -63.933,-14.921c-14.921,-21.317 -10.646,-53.263 12.796,-78.829c40.467,-46.887 89.479,-89.5 127.842,-119.317c63.908,-51.138 125.713,-46.888 191.75,0c51.133,36.217 104.417,83.1 138.508,123.567c34.092,38.363 36.217,51.137 36.217,149.158l0,626.404c0,98.021 -8.525,115.067 34.092,149.158l14.917,10.65c12.775,10.646 40.467,23.442 55.387,10.646l66.058,-55.387c51.133,-42.613 61.783,-78.829 61.783,-115.067l0,-517.758c0,-98 6.396,-117.167 -36.217,-149.133l-72.454,-55.408c-34.092,-25.546 -42.613,-68.183 -14.921,-98c34.092,-36.217 68.183,-63.908 93.771,-83.104c66.033,-48.988 129.967,-48.988 191.75,0c49.012,38.367 104.396,89.5 138.488,125.717l72.454,74.579c19.171,17.046 25.567,27.692 25.567,48.987c0,17.046 -10.667,29.842 -23.442,38.362c-19.171,12.775 -38.362,12.775 -38.362,59.663l0,556.096c0,98.021 -6.375,117.192 36.237,149.158l72.433,55.387c34.087,25.567 42.613,66.054 14.917,98.021c-23.442,27.692 -59.658,59.658 -93.746,83.079c-68.183,46.887 -125.717,46.887 -191.75,0c-38.363,-27.692 -106.546,-93.725 -136.363,-123.567c-2.15,0 -2.15,-2.125 -2.15,-2.125c-29.817,-34.092 -61.783,-38.363 -85.225,-14.921c-38.342,38.342 -89.475,95.875 -155.533,142.758c-63.908,46.867 -127.838,42.617 -191.771,-4.271" style="fill-rule:nonzero;"/><path d="M4640.51,3464.813l89.5,-74.579c27.692,-21.296 34.087,-38.342 36.217,-72.433l0,-492.188c0,-98.021 6.396,-115.067 -36.217,-149.158l-57.533,-55.387c-12.775,-10.646 -38.342,-21.296 -55.387,-10.646l-46.887,38.342c-27.692,21.317 -29.817,51.133 -36.212,149.158c-8.525,123.567 -4.25,392.042 0,496.438c4.25,98 6.396,127.842 36.212,149.138l14.921,10.671c12.796,10.646 40.488,23.417 55.387,10.646m-404.817,522.008c-10.646,-21.296 -17.046,-46.863 -17.046,-72.433c0,-87.35 72.454,-159.804 159.808,-159.804c87.35,0 159.783,72.454 159.783,159.804c0,19.171 -4.25,38.342 -10.65,57.513c-8.521,23.442 -12.771,93.771 127.842,80.975c19.171,0 27.717,-2.125 14.921,0l-14.921,0c-4.25,2.125 -8.525,2.125 -12.775,2.125c8.525,0 19.171,-2.125 27.696,-2.125c112.917,-8.521 172.579,-157.658 136.363,-291.896c-17.046,-61.804 -40.488,-123.588 -40.488,-174.725l0,-2.125c0,-68.179 -27.696,-59.658 -98,2.125l-104.4,91.625c-61.804,53.262 -132.113,53.262 -191.771,0l-138.488,-123.567c-38.363,-34.092 -31.967,-63.933 -36.238,-149.158c-8.5,-168.329 -6.375,-357.954 0,-496.442c4.271,-91.621 6.396,-115.067 36.238,-149.158c151.262,-174.7 313.212,-296.146 436.783,-383.517c66.054,-46.867 125.713,-48.992 191.746,0c76.729,55.408 159.808,136.363 204.546,189.646c19.192,19.171 59.679,68.179 72.454,80.954c19.171,19.171 25.567,27.692 25.567,49.008c0,17.046 -10.646,29.821 -23.442,38.342c-19.171,12.796 -38.342,14.921 -38.342,61.783l0,675.438c0,112.921 34.092,227.967 27.692,357.954c-12.792,287.646 -300.417,345.158 -460.221,351.554c-253.558,-6.396 -379.25,-87.35 -434.658,-193.896" style="fill-rule:nonzero;"/><path d="M5693.094,2516.672c38.363,-34.092 68.183,-66.058 91.625,-85.225c53.258,-40.492 117.192,-42.617 181.1,-14.921c121.467,51.133 323.862,262.075 323.862,536.925c0,468.75 -198.146,703.133 -500.712,941.767c-59.637,46.867 -164.058,-53.283 -100.125,-117.192c259.929,-253.554 270.579,-383.521 253.533,-711.654c-10.65,-213.067 -134.217,-360.075 -164.058,-383.521c-44.738,-36.212 -63.908,-44.737 -89.475,-23.442c-27.692,23.442 -59.658,38.362 -59.658,121.467l0,515.608c0,98.021 -6.4,117.192 36.217,149.158l72.429,55.387c34.092,25.567 40.488,66.054 14.921,98.021c-23.421,29.817 -49.013,51.138 -98,83.079c-68.179,44.763 -127.838,51.137 -187.496,-2.125l-27.696,-23.421c-17.046,-10.671 -36.237,-14.921 -49.008,-14.921c-12.796,0 -36.217,6.375 -51.137,10.65c-21.317,6.396 -61.808,6.396 -93.75,-29.821c-21.317,-25.588 -27.692,-78.85 6.396,-108.667c31.946,-27.696 40.467,-76.704 40.467,-106.546l0,-1186.775c0,-129.967 -66.054,-98 -59.658,-172.579c2.15,-17.046 21.317,-46.887 46.888,-44.737c46.862,2.125 83.079,36.212 138.487,-10.671l49.013,-44.742c59.658,-53.258 110.792,-49.008 183.225,-8.521c44.758,25.567 78.85,61.783 102.271,89.475c27.717,31.967 19.171,72.454 -14.921,98.025l-72.429,55.383c-42.617,31.967 -36.217,51.138 -36.217,149.158l0,151.283c0,70.308 31.967,61.783 63.908,34.092" style="fill-rule:nonzero;"/><path d="M6624.235,3680.005l-17.046,-14.921c-21.296,-17.046 -44.738,-21.296 -59.658,-21.296c-12.771,0 -36.217,6.4 -51.137,10.65c-21.317,6.396 -61.783,6.396 -93.75,-29.821c-21.292,-25.567 -27.692,-78.85 6.4,-108.667c31.942,-27.696 40.488,-76.704 40.488,-106.546l0,-779.812c0,-44.737 -19.192,-68.183 -51.133,-80.954c-4.275,-2.15 -10.671,-4.275 -17.046,-6.4c-25.592,-10.646 -49.012,-27.692 -49.012,-49.008c0,-63.908 34.092,-78.829 66.058,-78.829l51.133,0c55.387,0 112.921,-55.408 168.308,-176.85c38.362,-83.104 51.133,-140.638 80.975,-206.671c21.296,-44.737 25.567,-49.013 53.262,-49.013c31.963,0 34.088,4.275 34.088,349.429l0,21.296c0,51.138 25.571,61.808 55.408,61.808l78.829,0c31.946,0 66.033,14.921 66.033,78.829c0,42.612 -44.738,63.908 -66.033,63.908l-78.829,0c-29.837,0 -55.408,10.671 -55.408,61.804l0,677.542c0,98.021 -6.396,117.192 36.217,149.158l72.454,55.388c34.092,25.567 42.612,66.054 14.921,98.021c-23.442,27.692 -53.283,57.533 -93.771,83.079c-70.308,44.763 -132.092,51.138 -191.75,-2.125" style="fill-rule:nonzero;"/><path d="M7280.503,3680.005c-95.896,-53.263 -172.579,-104.396 -230.113,-166.179c-34.092,-38.367 -63.929,-95.875 -23.442,-147.013c44.738,-55.408 125.713,-123.588 189.621,-164.079c44.762,-27.692 78.854,-38.337 104.4,-17.046c25.592,21.321 25.592,51.138 2.146,83.104c-25.567,34.092 -19.192,63.929 19.171,93.75c53.262,44.738 108.671,78.829 151.283,93.75c14.9,6.396 40.488,23.442 83.079,-12.796c36.238,-29.821 27.717,-78.829 25.592,-144.862c-2.15,-98.025 -132.113,-125.717 -242.908,-149.158l-210.942,-49.012c-121.442,-25.567 -121.442,-123.567 -121.442,-166.179c0,-98.025 8.521,-117.192 36.217,-159.808c27.712,-42.612 121.442,-134.237 196.021,-204.542c76.704,-70.308 191.771,-153.408 234.383,-176.854c72.433,-40.487 127.842,-48.987 191.75,0c38.363,27.696 72.454,61.788 112.917,98.025c19.196,14.896 63.933,46.862 93.775,34.092c38.342,-14.921 59.633,-8.525 74.554,21.292c12.796,29.842 -10.646,72.454 -25.567,93.75c-36.217,51.137 -85.225,104.4 -140.613,142.762c-78.829,55.408 -127.842,31.967 -227.988,-74.579c-34.092,-36.217 -59.658,-66.058 -100.146,-91.604c-12.775,-8.546 -40.467,-23.442 -55.387,-10.667l-14.921,12.792c-51.133,42.617 -38.342,93.75 -38.342,176.829c0,98.021 121.446,117.192 238.637,140.637l223.712,49.008c98,19.171 112.921,85.229 112.921,155.533c0,98 -8.521,115.046 -36.217,157.683c-51.133,76.679 -125.713,140.612 -189.646,195.996c-70.304,61.808 -174.704,149.158 -236.488,187.5c-68.179,42.638 -127.837,36.238 -196.021,-2.125" style="fill-rule:nonzero;"/></g></svg>